
<svg width="24" height="24" viewBox="0 0 24 24" fill="currentColor" xmlns="http://www.w3.org/2000/svg">
  <path d="M19.27 5.33C17.94 4.71 16.5 4.26 15 4C14.9 4 14.81 4.03 14.78 4.11C14.62 4.4 14.45 4.77 14.34 5.08C12.74 4.83 11.15 4.83 9.59 5.08C9.48 4.77 9.31 4.4 9.14 4.11C9.11 4.03 9.02 4 8.92 4C7.42 4.26 5.98 4.71 4.65 5.33C4.62 5.33 4.59 5.36 4.56 5.39C1.56 9.81 0.73 14.12 1.14 18.38C1.14 18.44 1.17 18.49 1.22 18.52C3 19.8 4.71 20.55 6.4 21.04C6.5 21.07 6.59 21.04 6.65 20.96C7.07 20.37 7.44 19.75 7.74 19.1C7.79 18.99 7.74 18.88 7.62 18.83C7.05 18.61 6.52 18.34 6 18.04C5.87 17.96 5.85 17.76 5.96 17.66C6.1 17.55 6.23 17.44 6.37 17.33C6.42 17.29 6.5 17.28 6.56 17.31C10.28 19 14.32 19 18 17.31C18.05 17.28 18.13 17.29 18.18 17.33C18.31 17.44 18.45 17.55 18.59 17.66C18.7 17.76 18.69 17.96 18.56 18.04C18.05 18.35 17.51 18.61 16.94 18.83C16.82 18.88 16.77 18.99 16.82 19.1C17.13 19.75 17.5 20.37 17.9 20.96C17.96 21.04 18.06 21.07 18.16 21.04C19.86 20.55 21.57 19.8 23.34 18.52C23.4 18.49 23.43 18.44 23.43 18.38C23.92 13.45 22.66 9.17 19.4 5.39C19.38 5.36 19.35 5.33 19.27 5.33ZM8.52 15.76C7.42 15.76 6.5 14.74 6.5 13.5C6.5 12.26 7.39 11.24 8.52 11.24C9.66 11.24 10.55 12.27 10.53 13.5C10.53 14.74 9.65 15.76 8.52 15.76ZM15.51 15.76C14.41 15.76 13.49 14.74 13.49 13.5C13.49 12.26 14.38 11.24 15.51 11.24C16.65 11.24 17.54 12.27 17.52 13.5C17.52 14.74 16.65 15.76 15.51 15.76Z" fill="currentColor"/>
</svg> 




