
<svg width="24" height="24" viewBox="0 0 24 24" fill="currentColor" xmlns="http://www.w3.org/2000/svg">
  <path d="M12 2C6.477 2 2 6.477 2 12C2 16.419 4.865 20.166 8.839 21.489C9.339 21.581 9.521 21.27 9.521 21.006C9.521 20.768 9.512 20.058 9.508 19.191C6.726 19.825 6.139 17.783 6.139 17.783C5.684 16.596 5.028 16.286 5.028 16.286C4.132 15.635 5.097 15.648 5.097 15.648C6.094 15.719 6.626 16.712 6.626 16.712C7.521 18.264 8.97 17.83 9.539 17.576C9.631 16.906 9.889 16.472 10.175 16.22C7.955 15.965 5.619 15.079 5.619 11.285C5.619 10.16 6.01 9.235 6.646 8.506C6.543 8.255 6.195 7.249 6.746 5.941C6.746 5.941 7.587 5.675 9.497 6.901C10.294 6.682 11.15 6.572 12 6.569C12.85 6.572 13.707 6.682 14.505 6.901C16.414 5.675 17.254 5.941 17.254 5.941C17.806 7.249 17.458 8.255 17.355 8.506C17.992 9.235 18.381 10.16 18.381 11.285C18.381 15.092 16.041 15.962 13.813 16.211C14.172 16.521 14.492 17.134 14.492 18.075C14.492 19.437 14.479 20.676 14.479 21.006C14.479 21.273 14.659 21.587 15.167 21.489C19.138 20.163 22 16.418 22 12C22 6.477 17.523 2 12 2Z" fill="currentColor"/>
</svg> 




